<svg width="1875" height="1041" viewBox="0 0 1875 1041" fill="none" xmlns="http://www.w3.org/2000/svg">
<rect width="1875" height="1041" fill="white"/>
<line x1="937.085" y1="2.12246e-08" x2="937.085" y2="1041" stroke="black"/>
<line y1="507.565" x2="1875" y2="507.565" stroke="black"/>
<path d="M38.7974 40.1521H43.4734L53.0774 54.8801H53.1334V40.1521H56.6614V59.9761H52.1814L42.3814 44.7721H42.3254V59.9761H38.7974V40.1521ZM69.1745 58.1281H69.0905C68.6052 58.8934 67.9892 59.4534 67.2425 59.8081C66.4958 60.1441 65.6745 60.3121 64.7785 60.3121C64.1625 60.3121 63.5558 60.2281 62.9585 60.0601C62.3798 59.8921 61.8572 59.6401 61.3905 59.3041C60.9425 58.9681 60.5785 58.5481 60.2985 58.0441C60.0185 57.5401 59.8785 56.9521 59.8785 56.2801C59.8785 55.5521 60.0092 54.9361 60.2705 54.4321C60.5318 53.9094 60.8772 53.4801 61.3065 53.1441C61.7545 52.7894 62.2678 52.5094 62.8465 52.3041C63.4252 52.0988 64.0225 51.9494 64.6385 51.8561C65.2732 51.7441 65.9078 51.6788 66.5425 51.6601C67.1772 51.6228 67.7745 51.6041 68.3345 51.6041H69.1745V51.2401C69.1745 50.4001 68.8852 49.7748 68.3065 49.3641C67.7278 48.9348 66.9905 48.7201 66.0945 48.7201C65.3852 48.7201 64.7225 48.8508 64.1065 49.1121C63.4905 49.3548 62.9585 49.6908 62.5105 50.1201L60.7465 48.3561C61.4932 47.5908 62.3612 47.0401 63.3505 46.7041C64.3585 46.3681 65.3945 46.2001 66.4585 46.2001C67.4105 46.2001 68.2132 46.3121 68.8665 46.5361C69.5198 46.7414 70.0612 47.0121 70.4905 47.3481C70.9198 47.6841 71.2465 48.0761 71.4705 48.5241C71.7132 48.9534 71.8812 49.3921 71.9745 49.8401C72.0865 50.2881 72.1518 50.7268 72.1705 51.1561C72.1892 51.5668 72.1985 51.9308 72.1985 52.2481V59.9761H69.1745V58.1281ZM68.9785 53.9561H68.2785C67.8118 53.9561 67.2892 53.9748 66.7105 54.0121C66.1318 54.0494 65.5812 54.1428 65.0585 54.2921C64.5545 54.4228 64.1252 54.6281 63.7705 54.9081C63.4158 55.1694 63.2385 55.5428 63.2385 56.0281C63.2385 56.3454 63.3038 56.6161 63.4345 56.8401C63.5838 57.0454 63.7705 57.2228 63.9945 57.3721C64.2185 57.5214 64.4705 57.6334 64.7505 57.7081C65.0305 57.7641 65.3105 57.7921 65.5905 57.7921C66.7478 57.7921 67.5972 57.5214 68.1385 56.9801C68.6985 56.4201 68.9785 55.6641 68.9785 54.7121V53.9561ZM75.6736 46.5361H78.8656V48.6361H78.9216C79.2202 48.0014 79.6962 47.4414 80.3496 46.9561C81.0216 46.4521 81.9176 46.2001 83.0376 46.2001C85.1469 46.2001 86.5469 47.0308 87.2376 48.6921C87.7229 47.8334 88.3296 47.2081 89.0576 46.8161C89.7856 46.4054 90.6536 46.2001 91.6616 46.2001C92.5576 46.2001 93.3136 46.3494 93.9296 46.6481C94.5456 46.9468 95.0402 47.3574 95.4136 47.8801C95.8056 48.4028 96.0856 49.0188 96.2536 49.7281C96.4216 50.4188 96.5056 51.1654 96.5056 51.9681V59.9761H93.1456V52.3601C93.1456 51.9494 93.1082 51.5574 93.0336 51.1841C92.9589 50.7921 92.8282 50.4561 92.6416 50.1761C92.4549 49.8774 92.2029 49.6441 91.8856 49.4761C91.5682 49.3081 91.1576 49.2241 90.6536 49.2241C90.1309 49.2241 89.6829 49.3268 89.3096 49.5321C88.9549 49.7188 88.6562 49.9801 88.4136 50.3161C88.1896 50.6334 88.0216 51.0068 87.9096 51.4361C87.8162 51.8468 87.7696 52.2668 87.7696 52.6961V59.9761H84.4096V51.9681C84.4096 51.1281 84.2322 50.4654 83.8776 49.9801C83.5229 49.4761 82.9349 49.2241 82.1136 49.2241C81.5536 49.2241 81.0776 49.3174 80.6856 49.5041C80.3122 49.6908 79.9949 49.9428 79.7336 50.2601C79.4909 50.5774 79.3136 50.9414 79.2016 51.3521C79.0896 51.7628 79.0336 52.1921 79.0336 52.6401V59.9761H75.6736V46.5361ZM102.865 54.4321C102.977 55.4401 103.369 56.2241 104.041 56.7841C104.713 57.3441 105.525 57.6241 106.477 57.6241C107.317 57.6241 108.017 57.4561 108.577 57.1201C109.156 56.7654 109.66 56.3268 110.089 55.8041L112.497 57.6241C111.713 58.5948 110.836 59.2854 109.865 59.6961C108.894 60.1068 107.877 60.3121 106.813 60.3121C105.805 60.3121 104.853 60.1441 103.957 59.8081C103.061 59.4721 102.286 58.9961 101.633 58.3801C100.98 57.7641 100.457 57.0268 100.065 56.1681C99.6915 55.2908 99.5049 54.3201 99.5049 53.2561C99.5049 52.1921 99.6915 51.2308 100.065 50.3721C100.457 49.4948 100.98 48.7481 101.633 48.1321C102.286 47.5161 103.061 47.0401 103.957 46.7041C104.853 46.3681 105.805 46.2001 106.813 46.2001C107.746 46.2001 108.596 46.3681 109.361 46.7041C110.145 47.0214 110.808 47.4881 111.349 48.1041C111.909 48.7201 112.338 49.4854 112.637 50.4001C112.954 51.2961 113.113 52.3321 113.113 53.5081V54.4321H102.865ZM109.753 51.9121C109.734 50.9228 109.426 50.1481 108.829 49.5881C108.232 49.0094 107.401 48.7201 106.337 48.7201C105.329 48.7201 104.526 49.0094 103.929 49.5881C103.35 50.1668 102.996 50.9414 102.865 51.9121H109.753ZM116.255 58.0161C116.255 57.4188 116.47 56.9054 116.899 56.4761C117.347 56.0468 117.879 55.8321 118.495 55.8321C119.092 55.8321 119.615 56.0374 120.063 56.4481C120.511 56.8588 120.735 57.3628 120.735 57.9601C120.735 58.5574 120.511 59.0708 120.063 59.5001C119.634 59.9294 119.111 60.1441 118.495 60.1441C118.196 60.1441 117.907 60.0881 117.627 59.9761C117.366 59.8641 117.132 59.7148 116.927 59.5281C116.722 59.3414 116.554 59.1174 116.423 58.8561C116.311 58.5948 116.255 58.3148 116.255 58.0161ZM116.255 48.5241C116.255 47.9268 116.47 47.4134 116.899 46.9841C117.347 46.5548 117.879 46.3401 118.495 46.3401C119.092 46.3401 119.615 46.5454 120.063 46.9561C120.511 47.3668 120.735 47.8708 120.735 48.4681C120.735 49.0654 120.511 49.5788 120.063 50.0081C119.634 50.4374 119.111 50.6521 118.495 50.6521C118.196 50.6521 117.907 50.5961 117.627 50.4841C117.366 50.3721 117.132 50.2228 116.927 50.0361C116.722 49.8494 116.554 49.6254 116.423 49.3641C116.311 49.1028 116.255 48.8228 116.255 48.5241Z" fill="black"/>
<path d="M65.5557 564.809C63.1104 566.115 60.3757 566.769 57.3517 566.769C55.8211 566.769 54.4117 566.526 53.1237 566.041C51.8544 565.537 50.7531 564.837 49.8197 563.941C48.9051 563.026 48.1864 561.934 47.6637 560.665C47.1411 559.395 46.8797 557.986 46.8797 556.437C46.8797 554.85 47.1411 553.413 47.6637 552.125C48.1864 550.818 48.9051 549.707 49.8197 548.793C50.7531 547.878 51.8544 547.178 53.1237 546.693C54.4117 546.189 55.8211 545.937 57.3517 545.937C58.8637 545.937 60.2824 546.123 61.6077 546.497C62.9331 546.851 64.1184 547.495 65.1637 548.429L62.5597 551.061C61.9251 550.445 61.1504 549.969 60.2357 549.633C59.3397 549.297 58.3877 549.129 57.3797 549.129C56.3531 549.129 55.4197 549.315 54.5797 549.689C53.7584 550.043 53.0491 550.547 52.4517 551.201C51.8544 551.835 51.3877 552.582 51.0517 553.441C50.7344 554.299 50.5757 555.223 50.5757 556.213C50.5757 557.277 50.7344 558.257 51.0517 559.153C51.3877 560.049 51.8544 560.823 52.4517 561.477C53.0491 562.13 53.7584 562.643 54.5797 563.017C55.4197 563.39 56.3531 563.577 57.3797 563.577C58.2757 563.577 59.1157 563.493 59.8997 563.325C60.7024 563.157 61.4117 562.895 62.0277 562.541V557.865H57.9677V554.673H65.5557V564.809ZM68.7567 559.545C68.7567 558.481 68.9434 557.519 69.3167 556.661C69.7087 555.783 70.2314 555.037 70.8847 554.421C71.538 553.805 72.3127 553.329 73.2087 552.993C74.1047 552.657 75.0567 552.489 76.0647 552.489C77.0727 552.489 78.0247 552.657 78.9207 552.993C79.8167 553.329 80.5914 553.805 81.2447 554.421C81.898 555.037 82.4114 555.783 82.7847 556.661C83.1767 557.519 83.3727 558.481 83.3727 559.545C83.3727 560.609 83.1767 561.579 82.7847 562.457C82.4114 563.315 81.898 564.053 81.2447 564.669C80.5914 565.285 79.8167 565.761 78.9207 566.097C78.0247 566.433 77.0727 566.601 76.0647 566.601C75.0567 566.601 74.1047 566.433 73.2087 566.097C72.3127 565.761 71.538 565.285 70.8847 564.669C70.2314 564.053 69.7087 563.315 69.3167 562.457C68.9434 561.579 68.7567 560.609 68.7567 559.545ZM72.1167 559.545C72.1167 560.067 72.2007 560.571 72.3687 561.057C72.5554 561.542 72.8167 561.971 73.1527 562.345C73.5074 562.718 73.9274 563.017 74.4127 563.241C74.898 563.465 75.4487 563.577 76.0647 563.577C76.6807 563.577 77.2314 563.465 77.7167 563.241C78.202 563.017 78.6127 562.718 78.9487 562.345C79.3034 561.971 79.5647 561.542 79.7327 561.057C79.9194 560.571 80.0127 560.067 80.0127 559.545C80.0127 559.022 79.9194 558.518 79.7327 558.033C79.5647 557.547 79.3034 557.118 78.9487 556.745C78.6127 556.371 78.202 556.073 77.7167 555.849C77.2314 555.625 76.6807 555.513 76.0647 555.513C75.4487 555.513 74.898 555.625 74.4127 555.849C73.9274 556.073 73.5074 556.371 73.1527 556.745C72.8167 557.118 72.5554 557.547 72.3687 558.033C72.2007 558.518 72.1167 559.022 72.1167 559.545ZM94.9185 564.417H94.8345C94.3492 565.182 93.7332 565.742 92.9865 566.097C92.2399 566.433 91.4185 566.601 90.5225 566.601C89.9065 566.601 89.2999 566.517 88.7025 566.349C88.1239 566.181 87.6012 565.929 87.1345 565.593C86.6865 565.257 86.3225 564.837 86.0425 564.333C85.7625 563.829 85.6225 563.241 85.6225 562.569C85.6225 561.841 85.7532 561.225 86.0145 560.721C86.2759 560.198 86.6212 559.769 87.0505 559.433C87.4985 559.078 88.0119 558.798 88.5905 558.593C89.1692 558.387 89.7665 558.238 90.3825 558.145C91.0172 558.033 91.6519 557.967 92.2865 557.949C92.9212 557.911 93.5185 557.893 94.0785 557.893H94.9185V557.529C94.9185 556.689 94.6292 556.063 94.0505 555.653C93.4719 555.223 92.7345 555.009 91.8385 555.009C91.1292 555.009 90.4665 555.139 89.8505 555.401C89.2345 555.643 88.7025 555.979 88.2545 556.409L86.4905 554.645C87.2372 553.879 88.1052 553.329 89.0945 552.993C90.1025 552.657 91.1385 552.489 92.2025 552.489C93.1545 552.489 93.9572 552.601 94.6105 552.825C95.2639 553.03 95.8052 553.301 96.2345 553.637C96.6639 553.973 96.9905 554.365 97.2145 554.813C97.4572 555.242 97.6252 555.681 97.7185 556.129C97.8305 556.577 97.8959 557.015 97.9145 557.445C97.9332 557.855 97.9425 558.219 97.9425 558.537V566.265H94.9185V564.417ZM94.7225 560.245H94.0225C93.5559 560.245 93.0332 560.263 92.4545 560.301C91.8759 560.338 91.3252 560.431 90.8025 560.581C90.2985 560.711 89.8692 560.917 89.5145 561.197C89.1599 561.458 88.9825 561.831 88.9825 562.317C88.9825 562.634 89.0479 562.905 89.1785 563.129C89.3279 563.334 89.5145 563.511 89.7385 563.661C89.9625 563.81 90.2145 563.922 90.4945 563.997C90.7745 564.053 91.0545 564.081 91.3345 564.081C92.4919 564.081 93.3412 563.81 93.8825 563.269C94.4425 562.709 94.7225 561.953 94.7225 561.001V560.245ZM101.614 545.097H104.974V566.265H101.614V545.097ZM115.999 556.549C115.346 555.634 114.468 555.177 113.367 555.177C112.919 555.177 112.48 555.289 112.051 555.513C111.622 555.737 111.407 556.101 111.407 556.605C111.407 557.015 111.584 557.314 111.939 557.501C112.294 557.687 112.742 557.846 113.283 557.977C113.824 558.107 114.403 558.247 115.019 558.397C115.654 558.527 116.242 558.742 116.783 559.041C117.324 559.321 117.772 559.713 118.127 560.217C118.482 560.721 118.659 561.411 118.659 562.289C118.659 563.091 118.482 563.773 118.127 564.333C117.791 564.874 117.343 565.313 116.783 565.649C116.242 565.985 115.626 566.227 114.935 566.377C114.244 566.526 113.554 566.601 112.863 566.601C111.818 566.601 110.856 566.451 109.979 566.153C109.102 565.854 108.318 565.313 107.627 564.529L109.867 562.429C110.296 562.914 110.754 563.315 111.239 563.633C111.743 563.931 112.35 564.081 113.059 564.081C113.302 564.081 113.554 564.053 113.815 563.997C114.076 563.941 114.319 563.847 114.543 563.717C114.767 563.586 114.944 563.427 115.075 563.241C115.224 563.035 115.299 562.802 115.299 562.541C115.299 562.074 115.122 561.729 114.767 561.505C114.412 561.281 113.964 561.103 113.423 560.973C112.882 560.823 112.294 560.693 111.659 560.581C111.043 560.45 110.464 560.254 109.923 559.993C109.382 559.713 108.934 559.33 108.579 558.845C108.224 558.359 108.047 557.687 108.047 556.829C108.047 556.082 108.196 555.438 108.495 554.897C108.812 554.337 109.223 553.879 109.727 553.525C110.231 553.17 110.81 552.909 111.463 552.741C112.116 552.573 112.779 552.489 113.451 552.489C114.347 552.489 115.234 552.647 116.111 552.965C116.988 553.263 117.698 553.786 118.239 554.533L115.999 556.549ZM143.726 561.589L148.01 566.265H143.67L141.57 563.997C140.767 564.949 139.908 565.649 138.994 566.097C138.079 566.545 136.987 566.769 135.718 566.769C134.84 566.769 133.991 566.638 133.17 566.377C132.367 566.134 131.658 565.77 131.042 565.285C130.426 564.781 129.931 564.174 129.558 563.465C129.184 562.737 128.998 561.897 128.998 560.945C128.998 560.273 129.11 559.657 129.334 559.097C129.558 558.518 129.856 557.995 130.23 557.529C130.622 557.043 131.079 556.623 131.602 556.269C132.124 555.895 132.684 555.597 133.282 555.373C132.964 555.018 132.666 554.673 132.386 554.337C132.124 554.001 131.891 553.655 131.686 553.301C131.48 552.946 131.312 552.563 131.182 552.153C131.07 551.742 131.014 551.294 131.014 550.809C131.014 550.006 131.163 549.297 131.462 548.681C131.779 548.065 132.199 547.561 132.722 547.169C133.244 546.758 133.851 546.45 134.542 546.245C135.232 546.039 135.951 545.937 136.698 545.937C137.444 545.937 138.154 546.03 138.826 546.217C139.498 546.403 140.086 546.693 140.59 547.085C141.112 547.458 141.523 547.943 141.822 548.541C142.139 549.138 142.298 549.838 142.298 550.641C142.298 551.257 142.186 551.826 141.962 552.349C141.738 552.853 141.439 553.319 141.066 553.749C140.692 554.159 140.263 554.542 139.778 554.897C139.311 555.233 138.835 555.522 138.35 555.765L141.542 559.209L143.754 555.849H147.702L143.726 561.589ZM136.754 548.961C136.1 548.961 135.54 549.147 135.074 549.521C134.607 549.875 134.374 550.351 134.374 550.949C134.374 551.21 134.43 551.471 134.542 551.733C134.654 551.975 134.803 552.227 134.99 552.489C135.176 552.731 135.372 552.965 135.578 553.189C135.802 553.413 136.026 553.627 136.25 553.833C136.53 553.683 136.828 553.515 137.146 553.329C137.463 553.123 137.752 552.899 138.014 552.657C138.294 552.395 138.518 552.115 138.686 551.817C138.854 551.518 138.938 551.182 138.938 550.809C138.938 550.267 138.723 549.829 138.294 549.493C137.864 549.138 137.351 548.961 136.754 548.961ZM135.41 557.361C135.074 557.566 134.747 557.781 134.43 558.005C134.112 558.21 133.823 558.443 133.562 558.705C133.3 558.966 133.086 559.265 132.918 559.601C132.768 559.937 132.694 560.319 132.694 560.749C132.694 561.178 132.778 561.579 132.946 561.953C133.114 562.326 133.338 562.643 133.618 562.905C133.916 563.166 134.252 563.371 134.626 563.521C134.999 563.67 135.4 563.745 135.83 563.745C136.595 563.745 137.267 563.539 137.846 563.129C138.424 562.718 138.966 562.27 139.47 561.785L135.41 557.361ZM158.905 546.441H163.581L173.185 561.169H173.241V546.441H176.769V566.265H172.289L162.489 551.061H162.433V566.265H158.905V546.441ZM183.57 560.721C183.682 561.729 184.074 562.513 184.746 563.073C185.418 563.633 186.23 563.913 187.182 563.913C188.022 563.913 188.722 563.745 189.282 563.409C189.86 563.054 190.364 562.615 190.794 562.093L193.202 563.913C192.418 564.883 191.54 565.574 190.57 565.985C189.599 566.395 188.582 566.601 187.518 566.601C186.51 566.601 185.558 566.433 184.662 566.097C183.766 565.761 182.991 565.285 182.338 564.669C181.684 564.053 181.162 563.315 180.77 562.457C180.396 561.579 180.21 560.609 180.21 559.545C180.21 558.481 180.396 557.519 180.77 556.661C181.162 555.783 181.684 555.037 182.338 554.421C182.991 553.805 183.766 553.329 184.662 552.993C185.558 552.657 186.51 552.489 187.518 552.489C188.451 552.489 189.3 552.657 190.066 552.993C190.85 553.31 191.512 553.777 192.054 554.393C192.614 555.009 193.043 555.774 193.342 556.689C193.659 557.585 193.818 558.621 193.818 559.797V560.721H183.57ZM190.458 558.201C190.439 557.211 190.131 556.437 189.534 555.877C188.936 555.298 188.106 555.009 187.042 555.009C186.034 555.009 185.231 555.298 184.634 555.877C184.055 556.455 183.7 557.23 183.57 558.201H190.458ZM199.648 560.721C199.76 561.729 200.152 562.513 200.824 563.073C201.496 563.633 202.308 563.913 203.26 563.913C204.1 563.913 204.8 563.745 205.36 563.409C205.939 563.054 206.443 562.615 206.872 562.093L209.28 563.913C208.496 564.883 207.619 565.574 206.648 565.985C205.677 566.395 204.66 566.601 203.596 566.601C202.588 566.601 201.636 566.433 200.74 566.097C199.844 565.761 199.069 565.285 198.416 564.669C197.763 564.053 197.24 563.315 196.848 562.457C196.475 561.579 196.288 560.609 196.288 559.545C196.288 558.481 196.475 557.519 196.848 556.661C197.24 555.783 197.763 555.037 198.416 554.421C199.069 553.805 199.844 553.329 200.74 552.993C201.636 552.657 202.588 552.489 203.596 552.489C204.529 552.489 205.379 552.657 206.144 552.993C206.928 553.31 207.591 553.777 208.132 554.393C208.692 555.009 209.121 555.774 209.42 556.689C209.737 557.585 209.896 558.621 209.896 559.797V560.721H199.648ZM206.536 558.201C206.517 557.211 206.209 556.437 205.612 555.877C205.015 555.298 204.184 555.009 203.12 555.009C202.112 555.009 201.309 555.298 200.712 555.877C200.133 556.455 199.779 557.23 199.648 558.201H206.536ZM223.678 564.249H223.622C223.137 565.07 222.483 565.667 221.662 566.041C220.841 566.414 219.954 566.601 219.002 566.601C217.957 566.601 217.023 566.423 216.202 566.069C215.399 565.695 214.709 565.191 214.13 564.557C213.551 563.922 213.113 563.175 212.814 562.317C212.515 561.458 212.366 560.534 212.366 559.545C212.366 558.555 212.525 557.631 212.842 556.773C213.159 555.914 213.598 555.167 214.158 554.533C214.737 553.898 215.427 553.403 216.23 553.049C217.033 552.675 217.91 552.489 218.862 552.489C219.497 552.489 220.057 552.554 220.542 552.685C221.027 552.815 221.457 552.983 221.83 553.189C222.203 553.394 222.521 553.618 222.782 553.861C223.043 554.085 223.258 554.309 223.426 554.533H223.51V545.097H226.87V566.265H223.678V564.249ZM215.726 559.545C215.726 560.067 215.81 560.571 215.978 561.057C216.165 561.542 216.426 561.971 216.762 562.345C217.117 562.718 217.537 563.017 218.022 563.241C218.507 563.465 219.058 563.577 219.674 563.577C220.29 563.577 220.841 563.465 221.326 563.241C221.811 563.017 222.222 562.718 222.558 562.345C222.913 561.971 223.174 561.542 223.342 561.057C223.529 560.571 223.622 560.067 223.622 559.545C223.622 559.022 223.529 558.518 223.342 558.033C223.174 557.547 222.913 557.118 222.558 556.745C222.222 556.371 221.811 556.073 221.326 555.849C220.841 555.625 220.29 555.513 219.674 555.513C219.058 555.513 218.507 555.625 218.022 555.849C217.537 556.073 217.117 556.371 216.762 556.745C216.426 557.118 216.165 557.547 215.978 558.033C215.81 558.518 215.726 559.022 215.726 559.545ZM237.843 556.549C237.189 555.634 236.312 555.177 235.211 555.177C234.763 555.177 234.324 555.289 233.895 555.513C233.465 555.737 233.251 556.101 233.251 556.605C233.251 557.015 233.428 557.314 233.783 557.501C234.137 557.687 234.585 557.846 235.127 557.977C235.668 558.107 236.247 558.247 236.863 558.397C237.497 558.527 238.085 558.742 238.627 559.041C239.168 559.321 239.616 559.713 239.971 560.217C240.325 560.721 240.503 561.411 240.503 562.289C240.503 563.091 240.325 563.773 239.971 564.333C239.635 564.874 239.187 565.313 238.627 565.649C238.085 565.985 237.469 566.227 236.779 566.377C236.088 566.526 235.397 566.601 234.707 566.601C233.661 566.601 232.7 566.451 231.823 566.153C230.945 565.854 230.161 565.313 229.471 564.529L231.711 562.429C232.14 562.914 232.597 563.315 233.083 563.633C233.587 563.931 234.193 564.081 234.903 564.081C235.145 564.081 235.397 564.053 235.659 563.997C235.92 563.941 236.163 563.847 236.387 563.717C236.611 563.586 236.788 563.427 236.919 563.241C237.068 563.035 237.143 562.802 237.143 562.541C237.143 562.074 236.965 561.729 236.611 561.505C236.256 561.281 235.808 561.103 235.267 560.973C234.725 560.823 234.137 560.693 233.503 560.581C232.887 560.45 232.308 560.254 231.767 559.993C231.225 559.713 230.777 559.33 230.423 558.845C230.068 558.359 229.891 557.687 229.891 556.829C229.891 556.082 230.04 555.438 230.339 554.897C230.656 554.337 231.067 553.879 231.571 553.525C232.075 553.17 232.653 552.909 233.307 552.741C233.96 552.573 234.623 552.489 235.295 552.489C236.191 552.489 237.077 552.647 237.955 552.965C238.832 553.263 239.541 553.786 240.083 554.533L237.843 556.549ZM243.116 564.305C243.116 563.707 243.331 563.194 243.76 562.765C244.208 562.335 244.74 562.121 245.356 562.121C245.954 562.121 246.476 562.326 246.924 562.737C247.372 563.147 247.596 563.651 247.596 564.249C247.596 564.846 247.372 565.359 246.924 565.789C246.495 566.218 245.972 566.433 245.356 566.433C245.058 566.433 244.768 566.377 244.488 566.265C244.227 566.153 243.994 566.003 243.788 565.817C243.583 565.63 243.415 565.406 243.284 565.145C243.172 564.883 243.116 564.603 243.116 564.305ZM243.116 554.813C243.116 554.215 243.331 553.702 243.76 553.273C244.208 552.843 244.74 552.629 245.356 552.629C245.954 552.629 246.476 552.834 246.924 553.245C247.372 553.655 247.596 554.159 247.596 554.757C247.596 555.354 247.372 555.867 246.924 556.297C246.495 556.726 245.972 556.941 245.356 556.941C245.058 556.941 244.768 556.885 244.488 556.773C244.227 556.661 243.994 556.511 243.788 556.325C243.583 556.138 243.415 555.914 243.284 555.653C243.172 555.391 243.116 555.111 243.116 554.813Z" fill="black"/>
<path d="M1010.15 557.251V564.265H1006.05V544.358H1013.81C1015.31 544.358 1016.62 544.632 1017.75 545.179C1018.89 545.725 1019.76 546.505 1020.37 547.516C1020.98 548.519 1021.29 549.663 1021.29 550.948C1021.29 552.899 1020.62 554.439 1019.28 555.569C1017.95 556.69 1016.1 557.251 1013.74 557.251H1010.15ZM1010.15 553.929H1013.81C1014.9 553.929 1015.72 553.673 1016.29 553.163C1016.86 552.653 1017.15 551.923 1017.15 550.975C1017.15 550 1016.86 549.212 1016.29 548.61C1015.71 548.009 1014.92 547.699 1013.91 547.681H1010.15V553.929ZM1032.27 564.265C1032.09 563.909 1031.95 563.467 1031.87 562.938C1030.91 564.005 1029.67 564.538 1028.14 564.538C1026.69 564.538 1025.49 564.119 1024.53 563.28C1023.58 562.442 1023.11 561.384 1023.11 560.108C1023.11 558.541 1023.69 557.337 1024.84 556.499C1026.01 555.66 1027.69 555.237 1029.89 555.227H1031.71V554.38C1031.71 553.696 1031.53 553.149 1031.17 552.739C1030.83 552.329 1030.28 552.124 1029.52 552.124C1028.85 552.124 1028.33 552.283 1027.95 552.602C1027.57 552.921 1027.39 553.359 1027.39 553.915H1023.44C1023.44 553.058 1023.7 552.265 1024.23 551.536C1024.76 550.807 1025.51 550.237 1026.47 549.827C1027.44 549.408 1028.52 549.198 1029.73 549.198C1031.55 549.198 1032.99 549.658 1034.06 550.579C1035.13 551.49 1035.67 552.776 1035.67 554.434V560.847C1035.68 562.25 1035.88 563.312 1036.26 564.032V564.265H1032.27ZM1029 561.516C1029.58 561.516 1030.12 561.389 1030.61 561.134C1031.11 560.869 1031.47 560.518 1031.71 560.081V557.538H1030.23C1028.25 557.538 1027.2 558.222 1027.07 559.589L1027.06 559.821C1027.06 560.313 1027.23 560.719 1027.58 561.038C1027.93 561.357 1028.4 561.516 1029 561.516ZM1042.88 564.265H1038.91V549.472H1042.88V564.265ZM1038.68 545.643C1038.68 545.051 1038.88 544.563 1039.27 544.181C1039.67 543.798 1040.21 543.606 1040.9 543.606C1041.57 543.606 1042.11 543.798 1042.51 544.181C1042.91 544.563 1043.11 545.051 1043.11 545.643C1043.11 546.245 1042.91 546.737 1042.49 547.12C1042.09 547.503 1041.56 547.694 1040.9 547.694C1040.23 547.694 1039.69 547.503 1039.28 547.12C1038.88 546.737 1038.68 546.245 1038.68 545.643ZM1049.78 549.472L1049.91 551.181C1050.96 549.859 1052.38 549.198 1054.16 549.198C1055.72 549.198 1056.89 549.658 1057.66 550.579C1058.42 551.5 1058.81 552.876 1058.83 554.708V564.265H1054.88V554.804C1054.88 553.965 1054.7 553.359 1054.33 552.985C1053.97 552.602 1053.36 552.411 1052.52 552.411C1051.4 552.411 1050.57 552.885 1050.01 553.833V564.265H1046.06V549.472H1049.78ZM1073.17 557.251V564.265H1069.07V544.358H1076.84C1078.33 544.358 1079.65 544.632 1080.78 545.179C1081.92 545.725 1082.79 546.505 1083.4 547.516C1084.01 548.519 1084.32 549.663 1084.32 550.948C1084.32 552.899 1083.65 554.439 1082.31 555.569C1080.98 556.69 1079.13 557.251 1076.77 557.251H1073.17ZM1073.17 553.929H1076.84C1077.92 553.929 1078.75 553.673 1079.31 553.163C1079.89 552.653 1080.17 551.923 1080.17 550.975C1080.17 550 1079.89 549.212 1079.31 548.61C1078.74 548.009 1077.95 547.699 1076.93 547.681H1073.17V553.929ZM1086.08 556.731C1086.08 555.264 1086.36 553.956 1086.93 552.807C1087.49 551.659 1088.3 550.77 1089.36 550.141C1090.43 549.513 1091.66 549.198 1093.07 549.198C1095.06 549.198 1096.69 549.809 1097.95 551.03C1099.21 552.252 1099.92 553.91 1100.07 556.007L1100.09 557.018C1100.09 559.288 1099.46 561.111 1098.19 562.487C1096.93 563.854 1095.23 564.538 1093.09 564.538C1090.96 564.538 1089.26 563.854 1087.98 562.487C1086.71 561.12 1086.08 559.261 1086.08 556.909V556.731ZM1090.03 557.018C1090.03 558.422 1090.3 559.498 1090.82 560.245C1091.35 560.983 1092.11 561.352 1093.09 561.352C1094.05 561.352 1094.8 560.988 1095.34 560.259C1095.87 559.52 1096.14 558.345 1096.14 556.731C1096.14 555.355 1095.87 554.289 1095.34 553.532C1094.8 552.776 1094.04 552.397 1093.07 552.397C1092.1 552.397 1091.35 552.776 1090.82 553.532C1090.3 554.28 1090.03 555.442 1090.03 557.018ZM1106.7 564.265H1102.73V549.472H1106.7V564.265ZM1102.5 545.643C1102.5 545.051 1102.7 544.563 1103.09 544.181C1103.49 543.798 1104.03 543.606 1104.72 543.606C1105.39 543.606 1105.93 543.798 1106.33 544.181C1106.73 544.563 1106.93 545.051 1106.93 545.643C1106.93 546.245 1106.73 546.737 1106.32 547.12C1105.91 547.503 1105.38 547.694 1104.72 547.694C1104.05 547.694 1103.51 547.503 1103.1 547.12C1102.7 546.737 1102.5 546.245 1102.5 545.643ZM1113.6 549.472L1113.73 551.181C1114.78 549.859 1116.2 549.198 1117.98 549.198C1119.55 549.198 1120.71 549.658 1121.48 550.579C1122.24 551.5 1122.63 552.876 1122.65 554.708V564.265H1118.7V554.804C1118.7 553.965 1118.52 553.359 1118.16 552.985C1117.79 552.602 1117.18 552.411 1116.34 552.411C1115.22 552.411 1114.39 552.885 1113.83 553.833V564.265H1109.88V549.472H1113.6ZM1130.39 545.835V549.472H1132.92V552.37H1130.39V559.753C1130.39 560.3 1130.5 560.692 1130.71 560.929C1130.92 561.166 1131.32 561.284 1131.91 561.284C1132.35 561.284 1132.73 561.252 1133.07 561.188V564.182C1132.3 564.419 1131.5 564.538 1130.68 564.538C1127.91 564.538 1126.49 563.139 1126.44 560.341V552.37H1124.28V549.472H1126.44V545.835H1130.39ZM1143.13 560.177C1143.13 559.694 1142.89 559.315 1142.41 559.042C1141.93 558.759 1141.17 558.509 1140.11 558.29C1136.59 557.552 1134.83 556.057 1134.83 553.806C1134.83 552.493 1135.38 551.399 1136.46 550.524C1137.56 549.64 1138.98 549.198 1140.74 549.198C1142.62 549.198 1144.12 549.64 1145.24 550.524C1146.37 551.408 1146.93 552.557 1146.93 553.97H1142.98C1142.98 553.405 1142.8 552.94 1142.44 552.575C1142.07 552.201 1141.5 552.015 1140.73 552.015C1140.06 552.015 1139.55 552.165 1139.18 552.466C1138.82 552.766 1138.64 553.149 1138.64 553.614C1138.64 554.052 1138.84 554.407 1139.25 554.681C1139.67 554.945 1140.37 555.177 1141.36 555.378C1142.34 555.569 1143.17 555.788 1143.84 556.034C1145.93 556.8 1146.98 558.126 1146.98 560.013C1146.98 561.362 1146.4 562.455 1145.24 563.294C1144.08 564.123 1142.59 564.538 1140.75 564.538C1139.52 564.538 1138.41 564.319 1137.45 563.882C1136.49 563.435 1135.74 562.829 1135.19 562.063C1134.64 561.289 1134.37 560.455 1134.37 559.561H1138.12C1138.15 560.263 1138.41 560.801 1138.9 561.175C1139.38 561.548 1140.03 561.735 1140.84 561.735C1141.59 561.735 1142.16 561.594 1142.55 561.311C1142.94 561.02 1143.13 560.641 1143.13 560.177ZM1155.96 558.905C1155.96 557.985 1156.21 557.132 1156.72 556.349C1157.24 555.565 1158.19 554.694 1159.57 553.737C1158.97 552.944 1158.51 552.201 1158.17 551.509C1157.84 550.807 1157.67 550.078 1157.67 549.321C1157.67 547.772 1158.15 546.514 1159.13 545.548C1160.11 544.572 1161.44 544.085 1163.09 544.085C1164.58 544.085 1165.8 544.527 1166.74 545.411C1167.7 546.295 1168.18 547.398 1168.18 548.72C1168.18 550.306 1167.38 551.705 1165.77 552.917L1164.24 554.024L1167.67 558.016C1168.21 556.959 1168.48 555.793 1168.48 554.516H1171.84C1171.84 557.105 1171.25 559.201 1170.05 560.806L1173.03 564.265H1168.55L1167.52 563.089C1166.06 564.055 1164.37 564.538 1162.47 564.538C1160.5 564.538 1158.92 564.023 1157.74 562.993C1156.55 561.954 1155.96 560.591 1155.96 558.905ZM1162.66 561.366C1163.6 561.366 1164.5 561.102 1165.35 560.573L1161.43 556.034L1161.14 556.239C1160.33 556.932 1159.92 557.748 1159.92 558.686C1159.92 559.479 1160.17 560.127 1160.67 560.628C1161.18 561.12 1161.85 561.366 1162.66 561.366ZM1161.21 549.266C1161.21 549.95 1161.61 550.811 1162.41 551.85L1163.46 551.153C1164 550.807 1164.37 550.47 1164.57 550.141C1164.78 549.813 1164.89 549.421 1164.89 548.966C1164.89 548.51 1164.72 548.113 1164.38 547.776C1164.04 547.439 1163.61 547.27 1163.08 547.27C1162.52 547.27 1162.06 547.453 1161.71 547.817C1161.38 548.182 1161.21 548.665 1161.21 549.266ZM1186.21 557.251V564.265H1182.11V544.358H1189.88C1191.37 544.358 1192.68 544.632 1193.82 545.179C1194.95 545.725 1195.83 546.505 1196.44 547.516C1197.05 548.519 1197.36 549.663 1197.36 550.948C1197.36 552.899 1196.69 554.439 1195.35 555.569C1194.02 556.69 1192.17 557.251 1189.81 557.251H1186.21ZM1186.21 553.929H1189.88C1190.96 553.929 1191.79 553.673 1192.35 553.163C1192.93 552.653 1193.21 551.923 1193.21 550.975C1193.21 550 1192.93 549.212 1192.35 548.61C1191.78 548.009 1190.99 547.699 1189.97 547.681H1186.21V553.929ZM1199.12 556.731C1199.12 555.264 1199.4 553.956 1199.97 552.807C1200.53 551.659 1201.34 550.77 1202.4 550.141C1203.47 549.513 1204.7 549.198 1206.11 549.198C1208.1 549.198 1209.73 549.809 1210.99 551.03C1212.25 552.252 1212.96 553.91 1213.11 556.007L1213.13 557.018C1213.13 559.288 1212.5 561.111 1211.23 562.487C1209.97 563.854 1208.27 564.538 1206.13 564.538C1204 564.538 1202.3 563.854 1201.02 562.487C1199.75 561.12 1199.12 559.261 1199.12 556.909V556.731ZM1203.07 557.018C1203.07 558.422 1203.34 559.498 1203.86 560.245C1204.39 560.983 1205.15 561.352 1206.13 561.352C1207.09 561.352 1207.84 560.988 1208.38 560.259C1208.91 559.52 1209.18 558.345 1209.18 556.731C1209.18 555.355 1208.91 554.289 1208.38 553.532C1207.84 552.776 1207.08 552.397 1206.11 552.397C1205.14 552.397 1204.39 552.776 1203.86 553.532C1203.34 554.28 1203.07 555.442 1203.07 557.018ZM1220.3 545.835V549.472H1222.83V552.37H1220.3V559.753C1220.3 560.3 1220.4 560.692 1220.61 560.929C1220.82 561.166 1221.22 561.284 1221.82 561.284C1222.25 561.284 1222.64 561.252 1222.98 561.188V564.182C1222.2 564.419 1221.41 564.538 1220.58 564.538C1217.81 564.538 1216.4 563.139 1216.35 560.341V552.37H1214.19V549.472H1216.35V545.835H1220.3ZM1231.84 564.538C1229.67 564.538 1227.9 563.873 1226.53 562.542C1225.17 561.211 1224.49 559.438 1224.49 557.224V556.841C1224.49 555.355 1224.78 554.029 1225.36 552.862C1225.93 551.686 1226.74 550.784 1227.79 550.155C1228.85 549.517 1230.05 549.198 1231.4 549.198C1233.42 549.198 1235.01 549.836 1236.17 551.112C1237.34 552.388 1237.92 554.197 1237.92 556.54V558.153H1228.5C1228.63 559.119 1229.01 559.894 1229.65 560.477C1230.3 561.061 1231.11 561.352 1232.1 561.352C1233.62 561.352 1234.81 560.801 1235.66 559.698L1237.61 561.872C1237.01 562.71 1236.21 563.367 1235.2 563.841C1234.19 564.306 1233.07 564.538 1231.84 564.538ZM1231.39 552.397C1230.6 552.397 1229.96 552.662 1229.47 553.19C1228.99 553.719 1228.68 554.475 1228.54 555.46H1234.04V555.145C1234.02 554.27 1233.78 553.596 1233.33 553.122C1232.87 552.639 1232.22 552.397 1231.39 552.397ZM1243.81 549.472L1243.94 551.181C1244.99 549.859 1246.41 549.198 1248.19 549.198C1249.76 549.198 1250.92 549.658 1251.69 550.579C1252.45 551.5 1252.85 552.876 1252.86 554.708V564.265H1248.91V554.804C1248.91 553.965 1248.73 553.359 1248.37 552.985C1248 552.602 1247.4 552.411 1246.55 552.411C1245.44 552.411 1244.6 552.885 1244.05 553.833V564.265H1240.09V549.472H1243.81ZM1260.6 545.835V549.472H1263.13V552.37H1260.6V559.753C1260.6 560.3 1260.71 560.692 1260.92 560.929C1261.13 561.166 1261.53 561.284 1262.12 561.284C1262.56 561.284 1262.94 561.252 1263.28 561.188V564.182C1262.51 564.419 1261.71 564.538 1260.89 564.538C1258.12 564.538 1256.71 563.139 1256.65 560.341V552.37H1254.49V549.472H1256.65V545.835H1260.6ZM1269.5 564.265H1265.54V549.472H1269.5V564.265ZM1265.31 545.643C1265.31 545.051 1265.5 544.563 1265.89 544.181C1266.29 543.798 1266.84 543.606 1267.52 543.606C1268.19 543.606 1268.73 543.798 1269.13 544.181C1269.53 544.563 1269.74 545.051 1269.74 545.643C1269.74 546.245 1269.53 546.737 1269.12 547.12C1268.72 547.503 1268.19 547.694 1267.52 547.694C1266.85 547.694 1266.32 547.503 1265.91 547.12C1265.51 546.737 1265.31 546.245 1265.31 545.643ZM1281.34 564.265C1281.16 563.909 1281.03 563.467 1280.95 562.938C1279.99 564.005 1278.74 564.538 1277.21 564.538C1275.76 564.538 1274.56 564.119 1273.6 563.28C1272.66 562.442 1272.18 561.384 1272.18 560.108C1272.18 558.541 1272.76 557.337 1273.92 556.499C1275.09 555.66 1276.77 555.237 1278.96 555.227H1280.78V554.38C1280.78 553.696 1280.6 553.149 1280.25 552.739C1279.9 552.329 1279.35 552.124 1278.59 552.124C1277.93 552.124 1277.41 552.283 1277.02 552.602C1276.65 552.921 1276.46 553.359 1276.46 553.915H1272.51C1272.51 553.058 1272.77 552.265 1273.3 551.536C1273.83 550.807 1274.58 550.237 1275.55 549.827C1276.51 549.408 1277.6 549.198 1278.8 549.198C1280.62 549.198 1282.07 549.658 1283.13 550.579C1284.21 551.49 1284.75 552.776 1284.75 554.434V560.847C1284.76 562.25 1284.95 563.312 1285.33 564.032V564.265H1281.34ZM1278.07 561.516C1278.66 561.516 1279.2 561.389 1279.69 561.134C1280.18 560.869 1280.55 560.518 1280.78 560.081V557.538H1279.31C1277.33 557.538 1276.27 558.222 1276.15 559.589L1276.13 559.821C1276.13 560.313 1276.31 560.719 1276.65 561.038C1277 561.357 1277.47 561.516 1278.07 561.516ZM1291.95 564.265H1287.99V543.265H1291.95V564.265ZM1312.77 559.042C1312.77 558.267 1312.5 557.675 1311.95 557.265C1311.41 556.845 1310.42 556.408 1309 555.952C1307.58 555.487 1306.45 555.031 1305.62 554.585C1303.36 553.363 1302.23 551.718 1302.23 549.649C1302.23 548.574 1302.53 547.617 1303.14 546.778C1303.75 545.931 1304.62 545.27 1305.75 544.796C1306.89 544.322 1308.16 544.085 1309.57 544.085C1311 544.085 1312.26 544.345 1313.38 544.864C1314.49 545.375 1315.35 546.099 1315.96 547.038C1316.58 547.977 1316.89 549.043 1316.89 550.237H1312.79C1312.79 549.326 1312.5 548.619 1311.93 548.118C1311.35 547.608 1310.55 547.352 1309.51 547.352C1308.5 547.352 1307.72 547.567 1307.17 547.995C1306.61 548.414 1306.33 548.97 1306.33 549.663C1306.33 550.31 1306.66 550.852 1307.31 551.29C1307.96 551.727 1308.92 552.138 1310.19 552.52C1312.52 553.222 1314.22 554.093 1315.29 555.132C1316.36 556.171 1316.89 557.465 1316.89 559.015C1316.89 560.737 1316.24 562.091 1314.93 563.075C1313.63 564.05 1311.88 564.538 1309.67 564.538C1308.14 564.538 1306.74 564.26 1305.49 563.704C1304.23 563.139 1303.27 562.369 1302.6 561.393C1301.95 560.418 1301.62 559.288 1301.62 558.003H1305.73C1305.73 560.199 1307.05 561.298 1309.67 561.298C1310.65 561.298 1311.41 561.102 1311.95 560.71C1312.5 560.309 1312.77 559.753 1312.77 559.042ZM1318.8 556.731C1318.8 555.264 1319.09 553.956 1319.65 552.807C1320.22 551.659 1321.03 550.77 1322.08 550.141C1323.15 549.513 1324.39 549.198 1325.79 549.198C1327.79 549.198 1329.41 549.809 1330.67 551.03C1331.94 552.252 1332.64 553.91 1332.79 556.007L1332.82 557.018C1332.82 559.288 1332.18 561.111 1330.92 562.487C1329.65 563.854 1327.95 564.538 1325.82 564.538C1323.68 564.538 1321.98 563.854 1320.7 562.487C1319.44 561.12 1318.8 559.261 1318.8 556.909V556.731ZM1322.75 557.018C1322.75 558.422 1323.02 559.498 1323.55 560.245C1324.08 560.983 1324.83 561.352 1325.82 561.352C1326.77 561.352 1327.52 560.988 1328.06 560.259C1328.6 559.52 1328.87 558.345 1328.87 556.731C1328.87 555.355 1328.6 554.289 1328.06 553.532C1327.52 552.776 1326.77 552.397 1325.79 552.397C1324.82 552.397 1324.08 552.776 1323.55 553.532C1323.02 554.28 1322.75 555.442 1322.75 557.018ZM1339.42 564.265H1335.46V543.265H1339.42V564.265ZM1351.55 562.761C1350.57 563.946 1349.22 564.538 1347.5 564.538C1345.91 564.538 1344.7 564.082 1343.86 563.171C1343.03 562.259 1342.61 560.924 1342.59 559.165V549.472H1346.54V559.028C1346.54 560.569 1347.25 561.339 1348.65 561.339C1349.99 561.339 1350.91 560.874 1351.41 559.944V549.472H1355.38V564.265H1351.66L1351.55 562.761ZM1363.09 545.835V549.472H1365.62V552.37H1363.09V559.753C1363.09 560.3 1363.19 560.692 1363.4 560.929C1363.61 561.166 1364.01 561.284 1364.6 561.284C1365.04 561.284 1365.43 561.252 1365.77 561.188V564.182C1364.99 564.419 1364.19 564.538 1363.37 564.538C1360.6 564.538 1359.19 563.139 1359.14 560.341V552.37H1356.98V549.472H1359.14V545.835H1363.09ZM1371.99 564.265H1368.02V549.472H1371.99V564.265ZM1367.79 545.643C1367.79 545.051 1367.99 544.563 1368.38 544.181C1368.78 543.798 1369.32 543.606 1370 543.606C1370.68 543.606 1371.22 543.798 1371.62 544.181C1372.02 544.563 1372.22 545.051 1372.22 545.643C1372.22 546.245 1372.01 546.737 1371.6 547.12C1371.2 547.503 1370.67 547.694 1370 547.694C1369.34 547.694 1368.8 547.503 1368.39 547.12C1367.99 546.737 1367.79 546.245 1367.79 545.643ZM1374.64 556.731C1374.64 555.264 1374.92 553.956 1375.49 552.807C1376.05 551.659 1376.86 550.77 1377.92 550.141C1378.99 549.513 1380.22 549.198 1381.63 549.198C1383.62 549.198 1385.25 549.809 1386.51 551.03C1387.77 552.252 1388.48 553.91 1388.63 556.007L1388.65 557.018C1388.65 559.288 1388.02 561.111 1386.75 562.487C1385.49 563.854 1383.79 564.538 1381.65 564.538C1379.52 564.538 1377.82 563.854 1376.54 562.487C1375.27 561.12 1374.64 559.261 1374.64 556.909V556.731ZM1378.59 557.018C1378.59 558.422 1378.85 559.498 1379.38 560.245C1379.91 560.983 1380.67 561.352 1381.65 561.352C1382.61 561.352 1383.36 560.988 1383.9 560.259C1384.43 559.52 1384.7 558.345 1384.7 556.731C1384.7 555.355 1384.43 554.289 1383.9 553.532C1383.36 552.776 1382.6 552.397 1381.63 552.397C1380.66 552.397 1379.91 552.776 1379.38 553.532C1378.85 554.28 1378.59 555.442 1378.59 557.018ZM1394.72 549.472L1394.85 551.181C1395.9 549.859 1397.32 549.198 1399.1 549.198C1400.67 549.198 1401.83 549.658 1402.6 550.579C1403.36 551.5 1403.76 552.876 1403.77 554.708V564.265H1399.82V554.804C1399.82 553.965 1399.64 553.359 1399.28 552.985C1398.91 552.602 1398.31 552.411 1397.46 552.411C1396.35 552.411 1395.51 552.885 1394.96 553.833V564.265H1391V549.472H1394.72ZM1414.79 560.177C1414.79 559.694 1414.55 559.315 1414.07 559.042C1413.6 558.759 1412.83 558.509 1411.77 558.29C1408.25 557.552 1406.49 556.057 1406.49 553.806C1406.49 552.493 1407.04 551.399 1408.12 550.524C1409.22 549.64 1410.64 549.198 1412.4 549.198C1414.28 549.198 1415.78 549.64 1416.9 550.524C1418.03 551.408 1418.59 552.557 1418.59 553.97H1414.64C1414.64 553.405 1414.46 552.94 1414.1 552.575C1413.73 552.201 1413.16 552.015 1412.39 552.015C1411.72 552.015 1411.21 552.165 1410.84 552.466C1410.48 552.766 1410.3 553.149 1410.3 553.614C1410.3 554.052 1410.5 554.407 1410.91 554.681C1411.33 554.945 1412.03 555.177 1413.02 555.378C1414 555.569 1414.83 555.788 1415.5 556.034C1417.59 556.8 1418.64 558.126 1418.64 560.013C1418.64 561.362 1418.06 562.455 1416.9 563.294C1415.74 564.123 1414.25 564.538 1412.41 564.538C1411.18 564.538 1410.07 564.319 1409.11 563.882C1408.15 563.435 1407.4 562.829 1406.85 562.063C1406.3 561.289 1406.03 560.455 1406.03 559.561H1409.78C1409.81 560.263 1410.07 560.801 1410.56 561.175C1411.04 561.548 1411.69 561.735 1412.5 561.735C1413.25 561.735 1413.82 561.594 1414.21 561.311C1414.6 561.02 1414.79 560.641 1414.79 560.177Z" fill="black"/>
<path d="M991.846 40.1521H999.574C1000.32 40.1521 1001.06 40.2454 1001.79 40.4321C1002.51 40.6001 1003.16 40.8894 1003.72 41.3001C1004.3 41.6921 1004.76 42.2054 1005.12 42.8401C1005.47 43.4748 1005.65 44.2401 1005.65 45.1361C1005.65 46.2561 1005.33 47.1801 1004.7 47.9081C1004.06 48.6361 1003.23 49.1588 1002.21 49.4761V49.5321C1002.82 49.6068 1003.39 49.7841 1003.91 50.0641C1004.46 50.3254 1004.91 50.6708 1005.29 51.1001C1005.66 51.5108 1005.95 51.9961 1006.15 52.5561C1006.38 53.0974 1006.49 53.6854 1006.49 54.3201C1006.49 55.4028 1006.28 56.3081 1005.85 57.0361C1005.42 57.7454 1004.85 58.3241 1004.14 58.7721C1003.45 59.2014 1002.64 59.5094 1001.73 59.6961C1000.83 59.8828 999.919 59.9761 998.986 59.9761H991.846V40.1521ZM995.374 48.2161H998.594C999.77 48.2161 1000.65 47.9921 1001.23 47.5441C1001.82 47.0774 1002.12 46.4708 1002.12 45.7241C1002.12 44.8654 1001.81 44.2308 1001.2 43.8201C1000.6 43.3908 999.63 43.1761 998.286 43.1761H995.374V48.2161ZM995.374 56.9521H998.622C999.07 56.9521 999.546 56.9241 1000.05 56.8681C1000.57 56.8121 1001.05 56.6814 1001.48 56.4761C1001.91 56.2708 1002.26 55.9814 1002.54 55.6081C1002.82 55.2161 1002.96 54.6934 1002.96 54.0401C1002.96 52.9948 1002.62 52.2668 1001.93 51.8561C1001.25 51.4454 1000.2 51.2401 998.762 51.2401H995.374V56.9521ZM1012.38 54.4321C1012.49 55.4401 1012.89 56.2241 1013.56 56.7841C1014.23 57.3441 1015.04 57.6241 1015.99 57.6241C1016.83 57.6241 1017.53 57.4561 1018.09 57.1201C1018.67 56.7654 1019.18 56.3268 1019.61 55.8041L1022.01 57.6241C1021.23 58.5948 1020.35 59.2854 1019.38 59.6961C1018.41 60.1068 1017.39 60.3121 1016.33 60.3121C1015.32 60.3121 1014.37 60.1441 1013.47 59.8081C1012.58 59.4721 1011.8 58.9961 1011.15 58.3801C1010.5 57.7641 1009.97 57.0268 1009.58 56.1681C1009.21 55.2908 1009.02 54.3201 1009.02 53.2561C1009.02 52.1921 1009.21 51.2308 1009.58 50.3721C1009.97 49.4948 1010.5 48.7481 1011.15 48.1321C1011.8 47.5161 1012.58 47.0401 1013.47 46.7041C1014.37 46.3681 1015.32 46.2001 1016.33 46.2001C1017.26 46.2001 1018.11 46.3681 1018.88 46.7041C1019.66 47.0214 1020.33 47.4881 1020.87 48.1041C1021.43 48.7201 1021.86 49.4854 1022.15 50.4001C1022.47 51.2961 1022.63 52.3321 1022.63 53.5081V54.4321H1012.38ZM1019.27 51.9121C1019.25 50.9228 1018.94 50.1481 1018.35 49.5881C1017.75 49.0094 1016.92 48.7201 1015.85 48.7201C1014.85 48.7201 1014.04 49.0094 1013.45 49.5881C1012.87 50.1668 1012.51 50.9414 1012.38 51.9121H1019.27ZM1029.13 48.4121H1029.19C1029.45 47.8521 1029.91 47.3481 1030.56 46.9001C1031.23 46.4334 1032.09 46.2001 1033.14 46.2001C1034.03 46.2001 1034.79 46.3494 1035.4 46.6481C1036.04 46.9468 1036.55 47.3388 1036.94 47.8241C1037.34 48.3094 1037.62 48.8694 1037.78 49.5041C1037.95 50.1388 1038.04 50.8014 1038.04 51.4921V59.9761H1034.68V53.1721C1034.68 52.7988 1034.66 52.3881 1034.62 51.9401C1034.58 51.4734 1034.48 51.0441 1034.31 50.6521C1034.16 50.2414 1033.92 49.9054 1033.58 49.6441C1033.25 49.3641 1032.79 49.2241 1032.21 49.2241C1031.65 49.2241 1031.18 49.3174 1030.78 49.5041C1030.41 49.6908 1030.09 49.9428 1029.83 50.2601C1029.59 50.5774 1029.41 50.9414 1029.3 51.3521C1029.19 51.7628 1029.13 52.1921 1029.13 52.6401V59.9761H1025.77V38.8081H1029.13V48.4121ZM1050.25 58.1281H1050.17C1049.68 58.8934 1049.07 59.4534 1048.32 59.8081C1047.57 60.1441 1046.75 60.3121 1045.85 60.3121C1045.24 60.3121 1044.63 60.2281 1044.03 60.0601C1043.46 59.8921 1042.93 59.6401 1042.47 59.3041C1042.02 58.9681 1041.65 58.5481 1041.37 58.0441C1041.09 57.5401 1040.95 56.9521 1040.95 56.2801C1040.95 55.5521 1041.09 54.9361 1041.35 54.4321C1041.61 53.9094 1041.95 53.4801 1042.38 53.1441C1042.83 52.7894 1043.34 52.5094 1043.92 52.3041C1044.5 52.0988 1045.1 51.9494 1045.71 51.8561C1046.35 51.7441 1046.98 51.6788 1047.62 51.6601C1048.25 51.6228 1048.85 51.6041 1049.41 51.6041H1050.25V51.2401C1050.25 50.4001 1049.96 49.7748 1049.38 49.3641C1048.8 48.9348 1048.07 48.7201 1047.17 48.7201C1046.46 48.7201 1045.8 48.8508 1045.18 49.1121C1044.57 49.3548 1044.03 49.6908 1043.59 50.1201L1041.82 48.3561C1042.57 47.5908 1043.44 47.0401 1044.43 46.7041C1045.43 46.3681 1046.47 46.2001 1047.53 46.2001C1048.49 46.2001 1049.29 46.3121 1049.94 46.5361C1050.6 46.7414 1051.14 47.0121 1051.57 47.3481C1052 47.6841 1052.32 48.0761 1052.55 48.5241C1052.79 48.9534 1052.96 49.3921 1053.05 49.8401C1053.16 50.2881 1053.23 50.7268 1053.25 51.1561C1053.27 51.5668 1053.27 51.9308 1053.27 52.2481V59.9761H1050.25V58.1281ZM1050.05 53.9561H1049.35C1048.89 53.9561 1048.37 53.9748 1047.79 54.0121C1047.21 54.0494 1046.66 54.1428 1046.13 54.2921C1045.63 54.4228 1045.2 54.6281 1044.85 54.9081C1044.49 55.1694 1044.31 55.5428 1044.31 56.0281C1044.31 56.3454 1044.38 56.6161 1044.51 56.8401C1044.66 57.0454 1044.85 57.2228 1045.07 57.3721C1045.29 57.5214 1045.55 57.6334 1045.83 57.7081C1046.11 57.7641 1046.39 57.7921 1046.67 57.7921C1047.82 57.7921 1048.67 57.5214 1049.21 56.9801C1049.77 56.4201 1050.05 55.6641 1050.05 54.7121V53.9561ZM1055.07 46.5361H1058.74L1062.32 55.9441H1062.38L1065.99 46.5361H1069.43L1064.14 59.9761H1060.56L1055.07 46.5361ZM1071.47 46.5361H1074.83V59.9761H1071.47V46.5361ZM1070.99 41.9721C1070.99 41.4308 1071.19 40.9641 1071.58 40.5721C1071.99 40.1614 1072.5 39.9561 1073.12 39.9561C1073.73 39.9561 1074.25 40.1521 1074.66 40.5441C1075.09 40.9174 1075.3 41.3934 1075.3 41.9721C1075.3 42.5508 1075.09 43.0361 1074.66 43.4281C1074.25 43.8014 1073.73 43.9881 1073.12 43.9881C1072.5 43.9881 1071.99 43.7921 1071.58 43.4001C1071.19 42.9894 1070.99 42.5134 1070.99 41.9721ZM1078.01 53.2561C1078.01 52.1921 1078.2 51.2308 1078.57 50.3721C1078.96 49.4948 1079.49 48.7481 1080.14 48.1321C1080.79 47.5161 1081.57 47.0401 1082.46 46.7041C1083.36 46.3681 1084.31 46.2001 1085.32 46.2001C1086.33 46.2001 1087.28 46.3681 1088.17 46.7041C1089.07 47.0401 1089.85 47.5161 1090.5 48.1321C1091.15 48.7481 1091.67 49.4948 1092.04 50.3721C1092.43 51.2308 1092.63 52.1921 1092.63 53.2561C1092.63 54.3201 1092.43 55.2908 1092.04 56.1681C1091.67 57.0268 1091.15 57.7641 1090.5 58.3801C1089.85 58.9961 1089.07 59.4721 1088.17 59.8081C1087.28 60.1441 1086.33 60.3121 1085.32 60.3121C1084.31 60.3121 1083.36 60.1441 1082.46 59.8081C1081.57 59.4721 1080.79 58.9961 1080.14 58.3801C1079.49 57.7641 1078.96 57.0268 1078.57 56.1681C1078.2 55.2908 1078.01 54.3201 1078.01 53.2561ZM1081.37 53.2561C1081.37 53.7788 1081.45 54.2828 1081.62 54.7681C1081.81 55.2534 1082.07 55.6828 1082.41 56.0561C1082.76 56.4294 1083.18 56.7281 1083.67 56.9521C1084.15 57.1761 1084.7 57.2881 1085.32 57.2881C1085.93 57.2881 1086.49 57.1761 1086.97 56.9521C1087.46 56.7281 1087.87 56.4294 1088.2 56.0561C1088.56 55.6828 1088.82 55.2534 1088.99 54.7681C1089.17 54.2828 1089.27 53.7788 1089.27 53.2561C1089.27 52.7334 1089.17 52.2294 1088.99 51.7441C1088.82 51.2588 1088.56 50.8294 1088.2 50.4561C1087.87 50.0828 1087.46 49.7841 1086.97 49.5601C1086.49 49.3361 1085.93 49.2241 1085.32 49.2241C1084.7 49.2241 1084.15 49.3361 1083.67 49.5601C1083.18 49.7841 1082.76 50.0828 1082.41 50.4561C1082.07 50.8294 1081.81 51.2588 1081.62 51.7441C1081.45 52.2294 1081.37 52.7334 1081.37 53.2561ZM1095.77 46.5361H1099.13V48.6641H1099.19C1099.56 47.8801 1100.09 47.2734 1100.78 46.8441C1101.48 46.4148 1102.27 46.2001 1103.16 46.2001C1103.37 46.2001 1103.57 46.2188 1103.75 46.2561C1103.96 46.2934 1104.16 46.3401 1104.37 46.3961V49.6441C1104.09 49.5694 1103.81 49.5134 1103.53 49.4761C1103.27 49.4201 1103.01 49.3921 1102.74 49.3921C1101.96 49.3921 1101.33 49.5414 1100.84 49.8401C1100.37 50.1201 1100.01 50.4468 1099.75 50.8201C1099.51 51.1934 1099.34 51.5668 1099.24 51.9401C1099.17 52.3134 1099.13 52.5934 1099.13 52.7801V59.9761H1095.77V46.5361ZM1115.06 58.1281H1114.97C1114.49 58.8934 1113.87 59.4534 1113.12 59.8081C1112.38 60.1441 1111.56 60.3121 1110.66 60.3121C1110.04 60.3121 1109.44 60.2281 1108.84 60.0601C1108.26 59.8921 1107.74 59.6401 1107.27 59.3041C1106.82 58.9681 1106.46 58.5481 1106.18 58.0441C1105.9 57.5401 1105.76 56.9521 1105.76 56.2801C1105.76 55.5521 1105.89 54.9361 1106.15 54.4321C1106.41 53.9094 1106.76 53.4801 1107.19 53.1441C1107.64 52.7894 1108.15 52.5094 1108.73 52.3041C1109.31 52.0988 1109.9 51.9494 1110.52 51.8561C1111.15 51.7441 1111.79 51.6788 1112.42 51.6601C1113.06 51.6228 1113.66 51.6041 1114.22 51.6041H1115.06V51.2401C1115.06 50.4001 1114.77 49.7748 1114.19 49.3641C1113.61 48.9348 1112.87 48.7201 1111.98 48.7201C1111.27 48.7201 1110.6 48.8508 1109.99 49.1121C1109.37 49.3548 1108.84 49.6908 1108.39 50.1201L1106.63 48.3561C1107.37 47.5908 1108.24 47.0401 1109.23 46.7041C1110.24 46.3681 1111.28 46.2001 1112.34 46.2001C1113.29 46.2001 1114.09 46.3121 1114.75 46.5361C1115.4 46.7414 1115.94 47.0121 1116.37 47.3481C1116.8 47.6841 1117.13 48.0761 1117.35 48.5241C1117.59 48.9534 1117.76 49.3921 1117.86 49.8401C1117.97 50.2881 1118.03 50.7268 1118.05 51.1561C1118.07 51.5668 1118.08 51.9308 1118.08 52.2481V59.9761H1115.06V58.1281ZM1114.86 53.9561H1114.16C1113.69 53.9561 1113.17 53.9748 1112.59 54.0121C1112.01 54.0494 1111.46 54.1428 1110.94 54.2921C1110.44 54.4228 1110.01 54.6281 1109.65 54.9081C1109.3 55.1694 1109.12 55.5428 1109.12 56.0281C1109.12 56.3454 1109.18 56.6161 1109.32 56.8401C1109.46 57.0454 1109.65 57.2228 1109.88 57.3721C1110.1 57.5214 1110.35 57.6334 1110.63 57.7081C1110.91 57.7641 1111.19 57.7921 1111.47 57.7921C1112.63 57.7921 1113.48 57.5214 1114.02 56.9801C1114.58 56.4201 1114.86 55.6641 1114.86 54.7121V53.9561ZM1121.75 38.8081H1125.11V59.9761H1121.75V38.8081ZM1137.56 40.1521H1145.37C1146.68 40.1521 1147.94 40.3574 1149.15 40.7681C1150.37 41.1601 1151.44 41.7668 1152.37 42.5881C1153.31 43.4094 1154.05 44.4454 1154.61 45.6961C1155.17 46.9281 1155.45 48.3841 1155.45 50.0641C1155.45 51.7628 1155.13 53.2374 1154.47 54.4881C1153.84 55.7201 1153.01 56.7468 1151.98 57.5681C1150.97 58.3708 1149.84 58.9774 1148.59 59.3881C1147.36 59.7801 1146.15 59.9761 1144.95 59.9761H1137.56V40.1521ZM1143.72 56.7841C1144.82 56.7841 1145.86 56.6628 1146.83 56.4201C1147.82 56.1588 1148.68 55.7668 1149.4 55.2441C1150.13 54.7028 1150.7 54.0121 1151.11 53.1721C1151.54 52.3134 1151.76 51.2774 1151.76 50.0641C1151.76 48.8694 1151.57 47.8428 1151.2 46.9841C1150.82 46.1254 1150.3 45.4348 1149.63 44.9121C1148.98 44.3708 1148.19 43.9788 1147.28 43.7361C1146.38 43.4748 1145.39 43.3441 1144.31 43.3441H1141.09V56.7841H1143.72ZM1161.19 54.4321C1161.3 55.4401 1161.69 56.2241 1162.36 56.7841C1163.04 57.3441 1163.85 57.6241 1164.8 57.6241C1165.64 57.6241 1166.34 57.4561 1166.9 57.1201C1167.48 56.7654 1167.98 56.3268 1168.41 55.8041L1170.82 57.6241C1170.04 58.5948 1169.16 59.2854 1168.19 59.6961C1167.22 60.1068 1166.2 60.3121 1165.14 60.3121C1164.13 60.3121 1163.18 60.1441 1162.28 59.8081C1161.38 59.4721 1160.61 58.9961 1159.96 58.3801C1159.3 57.7641 1158.78 57.0268 1158.39 56.1681C1158.01 55.2908 1157.83 54.3201 1157.83 53.2561C1157.83 52.1921 1158.01 51.2308 1158.39 50.3721C1158.78 49.4948 1159.3 48.7481 1159.96 48.1321C1160.61 47.5161 1161.38 47.0401 1162.28 46.7041C1163.18 46.3681 1164.13 46.2001 1165.14 46.2001C1166.07 46.2001 1166.92 46.3681 1167.68 46.7041C1168.47 47.0214 1169.13 47.4881 1169.67 48.1041C1170.23 48.7201 1170.66 49.4854 1170.96 50.4001C1171.28 51.2961 1171.44 52.3321 1171.44 53.5081V54.4321H1161.19ZM1168.08 51.9121C1168.06 50.9228 1167.75 50.1481 1167.15 49.5881C1166.55 49.0094 1165.72 48.7201 1164.66 48.7201C1163.65 48.7201 1162.85 49.0094 1162.25 49.5881C1161.67 50.1668 1161.32 50.9414 1161.19 51.9121H1168.08ZM1174.44 46.5361H1177.63V48.6361H1177.69C1177.98 48.0014 1178.46 47.4414 1179.11 46.9561C1179.79 46.4521 1180.68 46.2001 1181.8 46.2001C1183.91 46.2001 1185.31 47.0308 1186 48.6921C1186.49 47.8334 1187.09 47.2081 1187.82 46.8161C1188.55 46.4054 1189.42 46.2001 1190.43 46.2001C1191.32 46.2001 1192.08 46.3494 1192.69 46.6481C1193.31 46.9468 1193.8 47.3574 1194.18 47.8801C1194.57 48.4028 1194.85 49.0188 1195.02 49.7281C1195.19 50.4188 1195.27 51.1654 1195.27 51.9681V59.9761H1191.91V52.3601C1191.91 51.9494 1191.87 51.5574 1191.8 51.1841C1191.72 50.7921 1191.59 50.4561 1191.41 50.1761C1191.22 49.8774 1190.97 49.6441 1190.65 49.4761C1190.33 49.3081 1189.92 49.2241 1189.42 49.2241C1188.89 49.2241 1188.45 49.3268 1188.07 49.5321C1187.72 49.7188 1187.42 49.9801 1187.18 50.3161C1186.95 50.6334 1186.79 51.0068 1186.67 51.4361C1186.58 51.8468 1186.53 52.2668 1186.53 52.6961V59.9761H1183.17V51.9681C1183.17 51.1281 1183 50.4654 1182.64 49.9801C1182.29 49.4761 1181.7 49.2241 1180.88 49.2241C1180.32 49.2241 1179.84 49.3174 1179.45 49.5041C1179.08 49.6908 1178.76 49.9428 1178.5 50.2601C1178.25 50.5774 1178.08 50.9414 1177.97 51.3521C1177.85 51.7628 1177.8 52.1921 1177.8 52.6401V59.9761H1174.44V46.5361ZM1198.27 53.2561C1198.27 52.1921 1198.46 51.2308 1198.83 50.3721C1199.22 49.4948 1199.74 48.7481 1200.4 48.1321C1201.05 47.5161 1201.82 47.0401 1202.72 46.7041C1203.62 46.3681 1204.57 46.2001 1205.58 46.2001C1206.58 46.2001 1207.54 46.3681 1208.43 46.7041C1209.33 47.0401 1210.1 47.5161 1210.76 48.1321C1211.41 48.7481 1211.92 49.4948 1212.3 50.3721C1212.69 51.2308 1212.88 52.1921 1212.88 53.2561C1212.88 54.3201 1212.69 55.2908 1212.3 56.1681C1211.92 57.0268 1211.41 57.7641 1210.76 58.3801C1210.1 58.9961 1209.33 59.4721 1208.43 59.8081C1207.54 60.1441 1206.58 60.3121 1205.58 60.3121C1204.57 60.3121 1203.62 60.1441 1202.72 59.8081C1201.82 59.4721 1201.05 58.9961 1200.4 58.3801C1199.74 57.7641 1199.22 57.0268 1198.83 56.1681C1198.46 55.2908 1198.27 54.3201 1198.27 53.2561ZM1201.63 53.2561C1201.63 53.7788 1201.71 54.2828 1201.88 54.7681C1202.07 55.2534 1202.33 55.6828 1202.66 56.0561C1203.02 56.4294 1203.44 56.7281 1203.92 56.9521C1204.41 57.1761 1204.96 57.2881 1205.58 57.2881C1206.19 57.2881 1206.74 57.1761 1207.23 56.9521C1207.71 56.7281 1208.12 56.4294 1208.46 56.0561C1208.82 55.6828 1209.08 55.2534 1209.24 54.7681C1209.43 54.2828 1209.52 53.7788 1209.52 53.2561C1209.52 52.7334 1209.43 52.2294 1209.24 51.7441C1209.08 51.2588 1208.82 50.8294 1208.46 50.4561C1208.12 50.0828 1207.71 49.7841 1207.23 49.5601C1206.74 49.3361 1206.19 49.2241 1205.58 49.2241C1204.96 49.2241 1204.41 49.3361 1203.92 49.5601C1203.44 49.7841 1203.02 50.0828 1202.66 50.4561C1202.33 50.8294 1202.07 51.2588 1201.88 51.7441C1201.71 52.2294 1201.63 52.7334 1201.63 53.2561ZM1229.86 46.5361V58.7721C1229.86 59.9854 1229.71 61.0774 1229.41 62.0481C1229.12 63.0374 1228.65 63.8681 1228.01 64.5401C1227.4 65.2308 1226.61 65.7628 1225.66 66.1361C1224.71 66.5094 1223.58 66.6961 1222.27 66.6961C1221.02 66.6961 1219.84 66.5374 1218.72 66.2201C1217.6 65.9028 1216.56 65.3241 1215.61 64.4841L1217.63 61.7401C1218.3 62.3561 1219 62.8321 1219.73 63.1681C1220.45 63.5041 1221.29 63.6721 1222.25 63.6721C1223.05 63.6721 1223.72 63.5601 1224.26 63.3361C1224.82 63.1121 1225.26 62.8041 1225.58 62.4121C1225.91 62.0201 1226.15 61.5441 1226.28 60.9841C1226.43 60.4428 1226.5 59.8361 1226.5 59.1641V58.1841H1226.45C1225.96 58.8374 1225.32 59.3321 1224.51 59.6681C1223.71 59.9854 1222.89 60.1441 1222.05 60.1441C1221.04 60.1441 1220.13 59.9668 1219.31 59.6121C1218.49 59.2388 1217.78 58.7441 1217.18 58.1281C1216.6 57.5121 1216.15 56.7841 1215.83 55.9441C1215.52 55.1041 1215.36 54.2081 1215.36 53.2561C1215.36 52.2668 1215.51 51.3428 1215.81 50.4841C1216.11 49.6254 1216.54 48.8788 1217.12 48.2441C1217.7 47.6094 1218.39 47.1148 1219.19 46.7601C1220.02 46.3868 1220.95 46.2001 1221.99 46.2001C1222.95 46.2001 1223.83 46.3868 1224.65 46.7601C1225.48 47.1334 1226.13 47.7308 1226.61 48.5521H1226.67V46.5361H1229.86ZM1222.69 49.2241C1222.1 49.2241 1221.56 49.3268 1221.07 49.5321C1220.59 49.7188 1220.17 49.9894 1219.81 50.3441C1219.47 50.6801 1219.2 51.1001 1219 51.6041C1218.81 52.0894 1218.72 52.6308 1218.72 53.2281C1218.72 53.7694 1218.81 54.2734 1219 54.7401C1219.2 55.2068 1219.48 55.6174 1219.84 55.9721C1220.19 56.3268 1220.61 56.6068 1221.1 56.8121C1221.58 57.0174 1222.11 57.1201 1222.67 57.1201C1223.28 57.1201 1223.83 57.0174 1224.32 56.8121C1224.82 56.6068 1225.24 56.3361 1225.58 56.0001C1225.93 55.6454 1226.2 55.2254 1226.39 54.7401C1226.58 54.2548 1226.67 53.7321 1226.67 53.1721C1226.67 51.9961 1226.32 51.0441 1225.61 50.3161C1224.9 49.5881 1223.93 49.2241 1222.69 49.2241ZM1233.67 46.5361H1237.03V48.6641H1237.08C1237.46 47.8801 1237.99 47.2734 1238.68 46.8441C1239.37 46.4148 1240.16 46.2001 1241.06 46.2001C1241.26 46.2001 1241.46 46.2188 1241.65 46.2561C1241.85 46.2934 1242.06 46.3401 1242.26 46.3961V49.6441C1241.98 49.5694 1241.7 49.5134 1241.42 49.4761C1241.16 49.4201 1240.9 49.3921 1240.64 49.3921C1239.86 49.3921 1239.22 49.5414 1238.74 49.8401C1238.27 50.1201 1237.9 50.4468 1237.64 50.8201C1237.4 51.1934 1237.23 51.5668 1237.14 51.9401C1237.06 52.3134 1237.03 52.5934 1237.03 52.7801V59.9761H1233.67V46.5361ZM1252.95 58.1281H1252.87C1252.38 58.8934 1251.76 59.4534 1251.02 59.8081C1250.27 60.1441 1249.45 60.3121 1248.55 60.3121C1247.94 60.3121 1247.33 60.2281 1246.73 60.0601C1246.16 59.8921 1245.63 59.6401 1245.17 59.3041C1244.72 58.9681 1244.35 58.5481 1244.07 58.0441C1243.79 57.5401 1243.65 56.9521 1243.65 56.2801C1243.65 55.5521 1243.78 54.9361 1244.05 54.4321C1244.31 53.9094 1244.65 53.4801 1245.08 53.1441C1245.53 52.7894 1246.04 52.5094 1246.62 52.3041C1247.2 52.0988 1247.8 51.9494 1248.41 51.8561C1249.05 51.7441 1249.68 51.6788 1250.32 51.6601C1250.95 51.6228 1251.55 51.6041 1252.11 51.6041H1252.95V51.2401C1252.95 50.4001 1252.66 49.7748 1252.08 49.3641C1251.5 48.9348 1250.77 48.7201 1249.87 48.7201C1249.16 48.7201 1248.5 48.8508 1247.88 49.1121C1247.27 49.3548 1246.73 49.6908 1246.29 50.1201L1244.52 48.3561C1245.27 47.5908 1246.14 47.0401 1247.13 46.7041C1248.13 46.3681 1249.17 46.2001 1250.23 46.2001C1251.19 46.2001 1251.99 46.3121 1252.64 46.5361C1253.3 46.7414 1253.84 47.0121 1254.27 47.3481C1254.7 47.6841 1255.02 48.0761 1255.25 48.5241C1255.49 48.9534 1255.66 49.3921 1255.75 49.8401C1255.86 50.2881 1255.93 50.7268 1255.95 51.1561C1255.96 51.5668 1255.97 51.9308 1255.97 52.2481V59.9761H1252.95V58.1281ZM1252.75 53.9561H1252.05C1251.59 53.9561 1251.06 53.9748 1250.49 54.0121C1249.91 54.0494 1249.36 54.1428 1248.83 54.2921C1248.33 54.4228 1247.9 54.6281 1247.55 54.9081C1247.19 55.1694 1247.01 55.5428 1247.01 56.0281C1247.01 56.3454 1247.08 56.6161 1247.21 56.8401C1247.36 57.0454 1247.55 57.2228 1247.77 57.3721C1247.99 57.5214 1248.25 57.6334 1248.53 57.7081C1248.81 57.7641 1249.09 57.7921 1249.37 57.7921C1250.52 57.7921 1251.37 57.5214 1251.91 56.9801C1252.47 56.4201 1252.75 55.6641 1252.75 54.7121V53.9561ZM1259.59 46.5361H1262.78V48.5521H1262.84C1263.32 47.7308 1263.98 47.1334 1264.8 46.7601C1265.62 46.3868 1266.5 46.2001 1267.46 46.2001C1268.48 46.2001 1269.41 46.3868 1270.23 46.7601C1271.05 47.1148 1271.75 47.6094 1272.33 48.2441C1272.91 48.8788 1273.35 49.6254 1273.64 50.4841C1273.94 51.3428 1274.09 52.2668 1274.09 53.2561C1274.09 54.2454 1273.93 55.1694 1273.62 56.0281C1273.3 56.8868 1272.85 57.6334 1272.27 58.2681C1271.71 58.9028 1271.03 59.4068 1270.23 59.7801C1269.43 60.1348 1268.55 60.3121 1267.6 60.3121C1266.96 60.3121 1266.4 60.2468 1265.92 60.1161C1265.43 59.9854 1265 59.8174 1264.63 59.6121C1264.26 59.4068 1263.94 59.1921 1263.68 58.9681C1263.42 58.7254 1263.2 58.4921 1263.03 58.2681H1262.95V66.3601H1259.59V46.5361ZM1270.73 53.2561C1270.73 52.7334 1270.64 52.2294 1270.45 51.7441C1270.28 51.2588 1270.02 50.8294 1269.67 50.4561C1269.33 50.0828 1268.92 49.7841 1268.44 49.5601C1267.95 49.3361 1267.4 49.2241 1266.78 49.2241C1266.17 49.2241 1265.62 49.3361 1265.13 49.5601C1264.65 49.7841 1264.23 50.0828 1263.87 50.4561C1263.54 50.8294 1263.28 51.2588 1263.09 51.7441C1262.92 52.2294 1262.84 52.7334 1262.84 53.2561C1262.84 53.7788 1262.92 54.2828 1263.09 54.7681C1263.28 55.2534 1263.54 55.6828 1263.87 56.0561C1264.23 56.4294 1264.65 56.7281 1265.13 56.9521C1265.62 57.1761 1266.17 57.2881 1266.78 57.2881C1267.4 57.2881 1267.95 57.1761 1268.44 56.9521C1268.92 56.7281 1269.33 56.4294 1269.67 56.0561C1270.02 55.6828 1270.28 55.2534 1270.45 54.7681C1270.64 54.2828 1270.73 53.7788 1270.73 53.2561ZM1280.59 48.4121H1280.64C1280.9 47.8521 1281.36 47.3481 1282.01 46.9001C1282.69 46.4334 1283.54 46.2001 1284.59 46.2001C1285.49 46.2001 1286.24 46.3494 1286.86 46.6481C1287.49 46.9468 1288.01 47.3388 1288.4 47.8241C1288.79 48.3094 1289.07 48.8694 1289.24 49.5041C1289.41 50.1388 1289.49 50.8014 1289.49 51.4921V59.9761H1286.13V53.1721C1286.13 52.7988 1286.11 52.3881 1286.07 51.9401C1286.04 51.4734 1285.93 51.0441 1285.77 50.6521C1285.62 50.2414 1285.37 49.9054 1285.04 49.6441C1284.7 49.3641 1284.24 49.2241 1283.67 49.2241C1283.11 49.2241 1282.63 49.3174 1282.24 49.5041C1281.86 49.6908 1281.55 49.9428 1281.29 50.2601C1281.04 50.5774 1280.87 50.9414 1280.75 51.3521C1280.64 51.7628 1280.59 52.1921 1280.59 52.6401V59.9761H1277.23V38.8081H1280.59V48.4121ZM1293.36 46.5361H1296.72V59.9761H1293.36V46.5361ZM1292.88 41.9721C1292.88 41.4308 1293.08 40.9641 1293.47 40.5721C1293.88 40.1614 1294.4 39.9561 1295.01 39.9561C1295.63 39.9561 1296.14 40.1521 1296.55 40.5441C1296.98 40.9174 1297.2 41.3934 1297.2 41.9721C1297.2 42.5508 1296.98 43.0361 1296.55 43.4281C1296.14 43.8014 1295.63 43.9881 1295.01 43.9881C1294.4 43.9881 1293.88 43.7921 1293.47 43.4001C1293.08 42.9894 1292.88 42.5134 1292.88 41.9721ZM1309.76 50.5681C1309.37 50.1574 1308.96 49.8308 1308.53 49.5881C1308.1 49.3454 1307.66 49.2241 1307.21 49.2241C1306.6 49.2241 1306.05 49.3361 1305.56 49.5601C1305.08 49.7841 1304.66 50.0828 1304.3 50.4561C1303.97 50.8294 1303.7 51.2588 1303.52 51.7441C1303.35 52.2294 1303.27 52.7334 1303.27 53.2561C1303.27 53.7788 1303.35 54.2828 1303.52 54.7681C1303.7 55.2534 1303.97 55.6828 1304.3 56.0561C1304.66 56.4294 1305.08 56.7281 1305.56 56.9521C1306.05 57.1761 1306.6 57.2881 1307.21 57.2881C1307.74 57.2881 1308.22 57.1854 1308.67 56.9801C1309.12 56.7561 1309.5 56.4388 1309.82 56.0281L1312.06 58.4361C1311.72 58.7721 1311.33 59.0614 1310.88 59.3041C1310.45 59.5468 1310.01 59.7428 1309.57 59.8921C1309.12 60.0414 1308.69 60.1441 1308.28 60.2001C1307.87 60.2748 1307.51 60.3121 1307.21 60.3121C1306.21 60.3121 1305.25 60.1441 1304.36 59.8081C1303.46 59.4721 1302.69 58.9961 1302.03 58.3801C1301.38 57.7641 1300.86 57.0268 1300.47 56.1681C1300.09 55.2908 1299.91 54.3201 1299.91 53.2561C1299.91 52.1921 1300.09 51.2308 1300.47 50.3721C1300.86 49.4948 1301.38 48.7481 1302.03 48.1321C1302.69 47.5161 1303.46 47.0401 1304.36 46.7041C1305.25 46.3681 1306.21 46.2001 1307.21 46.2001C1308.07 46.2001 1308.93 46.3681 1309.79 46.7041C1310.67 47.0214 1311.43 47.5348 1312.09 48.2441L1309.76 50.5681ZM1321.25 50.2601C1320.6 49.3454 1319.72 48.8881 1318.62 48.8881C1318.17 48.8881 1317.73 49.0001 1317.31 49.2241C1316.88 49.4481 1316.66 49.8121 1316.66 50.3161C1316.66 50.7268 1316.84 51.0254 1317.19 51.2121C1317.55 51.3988 1318 51.5574 1318.54 51.6881C1319.08 51.8188 1319.66 51.9588 1320.27 52.1081C1320.91 52.2388 1321.5 52.4534 1322.04 52.7521C1322.58 53.0321 1323.03 53.4241 1323.38 53.9281C1323.74 54.4321 1323.91 55.1228 1323.91 56.0001C1323.91 56.8028 1323.74 57.4841 1323.38 58.0441C1323.05 58.5854 1322.6 59.0241 1322.04 59.3601C1321.5 59.6961 1320.88 59.9388 1320.19 60.0881C1319.5 60.2374 1318.81 60.3121 1318.12 60.3121C1317.07 60.3121 1316.11 60.1628 1315.23 59.8641C1314.36 59.5654 1313.57 59.0241 1312.88 58.2401L1315.12 56.1401C1315.55 56.6254 1316.01 57.0268 1316.49 57.3441C1317 57.6428 1317.6 57.7921 1318.31 57.7921C1318.56 57.7921 1318.81 57.7641 1319.07 57.7081C1319.33 57.6521 1319.57 57.5588 1319.8 57.4281C1320.02 57.2974 1320.2 57.1388 1320.33 56.9521C1320.48 56.7468 1320.55 56.5134 1320.55 56.2521C1320.55 55.7854 1320.38 55.4401 1320.02 55.2161C1319.67 54.9921 1319.22 54.8148 1318.68 54.6841C1318.14 54.5348 1317.55 54.4041 1316.91 54.2921C1316.3 54.1614 1315.72 53.9654 1315.18 53.7041C1314.64 53.4241 1314.19 53.0414 1313.83 52.5561C1313.48 52.0708 1313.3 51.3988 1313.3 50.5401C1313.3 49.7934 1313.45 49.1494 1313.75 48.6081C1314.07 48.0481 1314.48 47.5908 1314.98 47.2361C1315.49 46.8814 1316.06 46.6201 1316.72 46.4521C1317.37 46.2841 1318.03 46.2001 1318.71 46.2001C1319.6 46.2001 1320.49 46.3588 1321.37 46.6761C1322.24 46.9748 1322.95 47.4974 1323.49 48.2441L1321.25 50.2601ZM1326.53 58.0161C1326.53 57.4188 1326.74 56.9054 1327.17 56.4761C1327.62 56.0468 1328.15 55.8321 1328.77 55.8321C1329.36 55.8321 1329.89 56.0374 1330.33 56.4481C1330.78 56.8588 1331.01 57.3628 1331.01 57.9601C1331.01 58.5574 1330.78 59.0708 1330.33 59.5001C1329.91 59.9294 1329.38 60.1441 1328.77 60.1441C1328.47 60.1441 1328.18 60.0881 1327.9 59.9761C1327.64 59.8641 1327.4 59.7148 1327.2 59.5281C1326.99 59.3414 1326.83 59.1174 1326.69 58.8561C1326.58 58.5948 1326.53 58.3148 1326.53 58.0161ZM1326.53 48.5241C1326.53 47.9268 1326.74 47.4134 1327.17 46.9841C1327.62 46.5548 1328.15 46.3401 1328.77 46.3401C1329.36 46.3401 1329.89 46.5454 1330.33 46.9561C1330.78 47.3668 1331.01 47.8708 1331.01 48.4681C1331.01 49.0654 1330.78 49.5788 1330.33 50.0081C1329.91 50.4374 1329.38 50.6521 1328.77 50.6521C1328.47 50.6521 1328.18 50.5961 1327.9 50.4841C1327.64 50.3721 1327.4 50.2228 1327.2 50.0361C1326.99 49.8494 1326.83 49.6254 1326.69 49.3641C1326.58 49.1028 1326.53 48.8228 1326.53 48.5241Z" fill="black"/>
</svg>
